<?xml version="1.0" encoding="UTF-8" standalone="no"?>
<!-- Generator: Adobe Illustrator 19.0.0, SVG Export Plug-In . SVG Version: 6.00 Build 0)  -->

<svg
   xmlns:dc="http://purl.org/dc/elements/1.1/"
   xmlns:cc="http://creativecommons.org/ns#"
   xmlns:rdf="http://www.w3.org/1999/02/22-rdf-syntax-ns#"
   xmlns:svg="http://www.w3.org/2000/svg"
   xmlns="http://www.w3.org/2000/svg"
   xmlns:xlink="http://www.w3.org/1999/xlink"
   xmlns:sodipodi="http://sodipodi.sourceforge.net/DTD/sodipodi-0.dtd"
   xmlns:inkscape="http://www.inkscape.org/namespaces/inkscape"
   version="1.1"
   id="Layer_1"
   x="0px"
   y="0px"
   viewBox="0 0 469.59299 422.634"
   xml:space="preserve"
   sodipodi:docname="title_lightning.svg"
   inkscape:version="0.48.4 r9939"
   width="469.59299"
   height="422.634"><metadata
     id="metadata55"><rdf:RDF><cc:Work
         rdf:about=""><dc:format>image/svg+xml</dc:format><dc:type
           rdf:resource="http://purl.org/dc/dcmitype/StillImage" /><dc:title /></cc:Work></rdf:RDF></metadata><defs
     id="defs53"><linearGradient
       id="linearGradient4540"><stop
         style="stop-color:#000000;stop-opacity:0.54487179"
         offset="0"
         id="stop4536" /><stop
         style="stop-color:#000000;stop-opacity:0;"
         offset="1"
         id="stop4538" /></linearGradient><clipPath
       clipPathUnits="userSpaceOnUse"
       id="clipPath4550"><path
         id="path4552"
         d="m 365.523,126.45 h -64.702 v 234.105 h 64.7 c 7.111,0 12.874,-5.765 12.874,-12.874 V 139.326 c 0.002,-7.111 -5.762,-12.876 -12.872,-12.876 z"
         style="fill:#d0d1d3"
         inkscape:connector-curvature="0" /></clipPath><linearGradient
       inkscape:collect="always"
       xlink:href="#linearGradient4540"
       id="linearGradient4542"
       x1="200.67796"
       y1="194.16949"
       x2="656.15259"
       y2="457.13788"
       gradientUnits="userSpaceOnUse"
       gradientTransform="translate(0.21804398,-57.917603)" /></defs><sodipodi:namedview
     pagecolor="#ffffff"
     bordercolor="#666666"
     borderopacity="1"
     objecttolerance="10"
     gridtolerance="10"
     guidetolerance="10"
     inkscape:pageopacity="0"
     inkscape:pageshadow="2"
     inkscape:window-width="1680"
     inkscape:window-height="995"
     id="namedview51"
     showgrid="false"
     inkscape:zoom="0.46093753"
     inkscape:cx="77.241765"
     inkscape:cy="179.32597"
     inkscape:window-x="-2"
     inkscape:window-y="-3"
     inkscape:window-maximized="1"
     inkscape:current-layer="Layer_1"
     fit-margin-top="0"
     fit-margin-left="0"
     fit-margin-right="0"
     fit-margin-bottom="0" /><g
     id="g20"
     transform="translate(-21.47687,-57.917603)" /><g
     id="g22"
     transform="translate(-21.47687,-57.917603)" /><g
     id="g24"
     transform="translate(-21.47687,-57.917603)" /><g
     id="g26"
     transform="translate(-21.47687,-57.917603)" /><g
     id="g28"
     transform="translate(-21.47687,-57.917603)" /><g
     id="g30"
     transform="translate(-21.47687,-57.917603)" /><g
     id="g32"
     transform="translate(-21.47687,-57.917603)" /><g
     id="g34"
     transform="translate(-21.47687,-57.917603)" /><g
     id="g36"
     transform="translate(-21.47687,-57.917603)" /><g
     id="g38"
     transform="translate(-21.47687,-57.917603)" /><g
     id="g40"
     transform="translate(-21.47687,-57.917603)" /><g
     id="g42"
     transform="translate(-21.47687,-57.917603)" /><g
     id="g44"
     transform="translate(-21.47687,-57.917603)" /><g
     id="g46"
     transform="translate(-21.47687,-57.917603)" /><g
     id="g48"
     transform="translate(-21.47687,-57.917603)" /><rect
     style="opacity:1;fill:#ef7f1a;fill-opacity:1;stroke:none;stroke-width:0.37795275;stroke-linecap:round;stroke-linejoin:miter;stroke-miterlimit:4;stroke-dasharray:none;stroke-dashoffset:0;stroke-opacity:1;paint-order:normal"
     id="rect4508"
     width="469.59299"
     height="422.634"
     x="0"
     y="0"
     ry="0" /><path
     style="fill:url(#linearGradient4542);fill-opacity:1;fill-rule:evenodd;stroke:none"
     d="M 283.75671,56.898861 721.42496,309.58674 591.62264,560.65878 227.67448,350.53321 l 5.5971,-185.44738 z"
     id="path4534"
     inkscape:connector-curvature="0"
     sodipodi:nodetypes="cccccc"
     clip-path="none" /><g
     transform="matrix(0.31741089,0,0,0.31741089,194.87754,-56.41028)"
     id="g6"
     style="fill:#000000;fill-opacity:1;stroke:none"><path
       inkscape:connector-curvature="0"
       d="m 130.32715,1308.4967 c -4.1,0 -8.2,0 -8.2,0 -16.3,-4.1 -32.7,-20.4 -32.7,-40.8 l 0,-302.20001 -106.2,53.10001 c -12.3,4.1 -24.5,4.1 -36.8,0 -12.2,-4.1 -16.3,-16.3 -20.4,-28.60001 l -122.4,-612.5 c 0,-12.3 0,-24.5 8.2,-32.7 8.2,-12.2 20.4,-16.3 32.7,-16.3 l 408.3,0 c 12.2,0 24.5,4.1 32.7,16.3 8.2,8.2 8.2,20.4 8.2,32.7 l -65.3,302.2 216.4,-65.3 c 16.3,-4.1 32.7,0 44.9,12.3 12.2,12.2 12.2,28.6 4.1,44.9 l -326.8,612.40001 c -8.1,16.3 -20.4,24.5 -36.7,24.5 z"
       id="path8"
       style="fill:#ffed00;fill-opacity:1;stroke:none"
       sodipodi:nodetypes="scsccccccsscccccccs" /></g></svg>