<?xml version="1.0" encoding="UTF-8" standalone="no"?>
<!-- Generator: Adobe Illustrator 19.0.0, SVG Export Plug-In . SVG Version: 6.00 Build 0)  -->

<svg
   xmlns:dc="http://purl.org/dc/elements/1.1/"
   xmlns:cc="http://creativecommons.org/ns#"
   xmlns:rdf="http://www.w3.org/1999/02/22-rdf-syntax-ns#"
   xmlns:svg="http://www.w3.org/2000/svg"
   xmlns="http://www.w3.org/2000/svg"
   xmlns:sodipodi="http://sodipodi.sourceforge.net/DTD/sodipodi-0.dtd"
   xmlns:inkscape="http://www.inkscape.org/namespaces/inkscape"
   version="1.1"
   id="Layer_1"
   x="0px"
   y="0px"
   viewBox="0 0 512 512"
   style="enable-background:new 0 0 512 512;"
   xml:space="preserve"
   sodipodi:docname="ace_of_hearts.svg"
   inkscape:version="0.92.0 r15299"><metadata
     id="metadata55"><rdf:RDF><cc:Work
         rdf:about=""><dc:format>image/svg+xml</dc:format><dc:type
           rdf:resource="http://purl.org/dc/dcmitype/StillImage" /><dc:title></dc:title></cc:Work></rdf:RDF></metadata><defs
     id="defs53"><clipPath
       clipPathUnits="userSpaceOnUse"
       id="clipPath4550"><path
         id="path4552"
         d="m 365.523,126.45 h -64.702 v 234.105 h 64.7 c 7.111,0 12.874,-5.765 12.874,-12.874 V 139.326 c 0.002,-7.111 -5.762,-12.876 -12.872,-12.876 z"
         style="fill:#d0d1d3"
         inkscape:connector-curvature="0" /></clipPath></defs><sodipodi:namedview
     pagecolor="#ffffff"
     bordercolor="#666666"
     borderopacity="1"
     objecttolerance="10"
     gridtolerance="10"
     guidetolerance="10"
     inkscape:pageopacity="0"
     inkscape:pageshadow="2"
     inkscape:window-width="1920"
     inkscape:window-height="1017"
     id="namedview51"
     showgrid="false"
     inkscape:zoom="1.84375"
     inkscape:cx="157.95377"
     inkscape:cy="273.36121"
     inkscape:window-x="-8"
     inkscape:window-y="-8"
     inkscape:window-maximized="1"
     inkscape:current-layer="Layer_1" /><circle
     style="fill:#273B7A;"
     cx="256"
     cy="256"
     r="256"
     id="circle2" /><path
     style="fill:#121149;"
     d="M331.731,500.608c100.952-31.22,175.194-123.214,180.003-233.238L375.024,130.662L231.291,347.367  l15.372,15.372l-20.908,31.894L331.731,500.608z"
     id="path4" /><path
     style="fill:#FF7F4F;"
     d="M241.281,395.005l105.753-76.155c5.77-4.155,7.078-12.202,2.924-17.972L228.2,131.803  c-4.155-5.77-12.202-7.078-17.972-2.924l-105.753,76.155c-5.77,4.155-7.078,12.202-2.924,17.972L223.31,392.082  C227.464,397.852,235.511,399.16,241.281,395.005z"
     id="path6" /><path
     style="fill:#FFFFFF;"
     d="M235.203,360.555h130.319c7.111,0,12.874-5.765,12.874-12.874V139.326  c0-7.111-5.765-12.874-12.874-12.874H235.203c-7.111,0-12.874,5.765-12.874,12.874v208.355  C222.329,354.79,228.093,360.555,235.203,360.555z"
     id="path8" /><path
     style="fill:#D0D1D3;"
     d="M365.523,126.45h-64.702v234.105h64.7c7.111,0,12.874-5.765,12.874-12.874V139.326  C378.397,132.215,372.633,126.45,365.523,126.45z"
     id="path10" /><g
     id="g20" /><g
     id="g22" /><g
     id="g24" /><g
     id="g26" /><g
     id="g28" /><g
     id="g30" /><g
     id="g32" /><g
     id="g34" /><g
     id="g36" /><g
     id="g38" /><g
     id="g40" /><g
     id="g42" /><g
     id="g44" /><g
     id="g46" /><g
     id="g48" /><path
     inkscape:connector-curvature="0"
     style="fill:#c92f00;stroke-width:0.47077996;fill-opacity:1"
     d="m 354.844,220.94845 c 0,-16.45658 -13.26375,-29.79707 -29.62524,-29.79707 -8.10966,0 -15.45194,3.2818 -20.79859,8.59361 -1.98293,1.96928 -5.21436,1.96928 -7.19681,0 -5.34712,-5.31134 -12.68941,-8.59361 -20.79859,-8.59361 -16.36149,0 -29.62524,13.34049 -29.62524,29.79707 v 0 c 0,30.77442 39.6279,58.77076 51.00336,66.17283 1.83886,1.19673 4.19935,1.19673 6.03822,0 11.37452,-7.40207 51.00289,-35.39794 51.00289,-66.17283"
     id="path2" /><path
     id="path4546"
     d="m 354.844,220.94845 c 0,-16.45658 -13.26375,-29.79707 -29.62524,-29.79707 -8.10966,0 -15.45194,3.2818 -20.79859,8.59361 -1.98293,1.96928 -5.21436,1.96928 -7.19681,0 -5.34712,-5.31134 -12.68941,-8.59361 -20.79859,-8.59361 -16.36149,0 -29.62524,13.34049 -29.62524,29.79707 v 0 c 0,30.77442 39.6279,58.77076 51.00336,66.17283 1.83886,1.19673 4.19935,1.19673 6.03822,0 11.37452,-7.40207 51.00289,-35.39794 51.00289,-66.17283"
     style="fill:#930000;stroke-width:0.47077996;fill-opacity:1"
     inkscape:connector-curvature="0"
     clip-path="url(#clipPath4550)" /><path
     id="path4554"
     d="m 368.14897,318.45567 c 0,-4.38593 -3.53498,-7.94136 -7.89556,-7.94136 -2.16135,0 -4.11817,0.87465 -5.54313,2.29032 -0.52848,0.52484 -1.38971,0.52484 -1.91806,0 -1.42508,-1.41555 -3.38191,-2.29032 -5.54313,-2.29032 -4.36058,0 -7.89556,3.55543 -7.89556,7.94136 v 0 c 0,8.20183 10.56142,15.66327 13.59315,17.63603 0.49008,0.31894 1.11918,0.31894 1.60927,0 3.03148,-1.97276 13.59302,-9.43407 13.59302,-17.63603"
     style="fill:#930000;fill-opacity:1;stroke-width:0.12546979"
     inkscape:connector-curvature="0" /><path
     inkscape:connector-curvature="0"
     style="fill:#c92f00;fill-opacity:1;stroke-width:0.12546979"
     d="m 261.1002,155.2698 c 0,-4.38593 -3.53498,-7.94136 -7.89556,-7.94136 -2.16135,0 -4.11817,0.87465 -5.54313,2.29032 -0.52848,0.52484 -1.38971,0.52484 -1.91806,0 -1.42508,-1.41555 -3.38191,-2.29032 -5.54313,-2.29032 -4.36058,0 -7.89556,3.55543 -7.89556,7.94136 v 0 c 0,8.20183 10.56142,15.66327 13.59315,17.63603 0.49008,0.31894 1.11918,0.31894 1.60927,0 3.03148,-1.97276 13.59302,-9.43407 13.59302,-17.63603"
     id="path4556" /></svg>