<?xml version="1.0" encoding="UTF-8" standalone="no"?>
<!-- Created with Inkscape (http://www.inkscape.org/) -->

<svg
   xmlns:dc="http://purl.org/dc/elements/1.1/"
   xmlns:cc="http://creativecommons.org/ns#"
   xmlns:rdf="http://www.w3.org/1999/02/22-rdf-syntax-ns#"
   xmlns:svg="http://www.w3.org/2000/svg"
   xmlns="http://www.w3.org/2000/svg"
   xmlns:xlink="http://www.w3.org/1999/xlink"
   xmlns:sodipodi="http://sodipodi.sourceforge.net/DTD/sodipodi-0.dtd"
   xmlns:inkscape="http://www.inkscape.org/namespaces/inkscape"
   width="505.48041"
   height="449.27203"
   id="svg5655"
   sodipodi:version="0.32"
   inkscape:version="0.92.0 r15299"
   sodipodi:docname="hand_with_cards.svg"
   inkscape:output_extension="org.inkscape.output.svg.inkscape"
   version="1.0">
  <sodipodi:namedview
     id="base"
     pagecolor="#ffffff"
     bordercolor="#666666"
     borderopacity="1.0"
     inkscape:pageopacity="0.0"
     inkscape:pageshadow="2"
     inkscape:zoom="0.5"
     inkscape:cx="30.848076"
     inkscape:cy="54.236617"
     inkscape:document-units="px"
     inkscape:current-layer="g4649"
     showgrid="false"
     showguides="true"
     inkscape:guide-bbox="true"
     inkscape:window-width="1920"
     inkscape:window-height="1017"
     inkscape:window-x="-8"
     inkscape:window-y="-8"
     inkscape:window-maximized="1"
     fit-margin-top="0"
     fit-margin-left="0"
     fit-margin-right="0"
     fit-margin-bottom="0" />
  <defs
     id="defs5657">
    <linearGradient
       inkscape:collect="always"
       id="linearGradient6706">
      <stop
         style="stop-color:#ffffff;stop-opacity:1;"
         offset="0"
         id="stop6708" />
      <stop
         style="stop-color:#ffffff;stop-opacity:0;"
         offset="1"
         id="stop6710" />
    </linearGradient>
    <linearGradient
       inkscape:collect="always"
       id="linearGradient6682">
      <stop
         style="stop-color:#555753;stop-opacity:1;"
         offset="0"
         id="stop6684" />
      <stop
         style="stop-color:#555753;stop-opacity:0;"
         offset="1"
         id="stop6686" />
    </linearGradient>
    <linearGradient
       inkscape:collect="always"
       id="linearGradient6670">
      <stop
         style="stop-color:#ffffff;stop-opacity:1;"
         offset="0"
         id="stop6672" />
      <stop
         style="stop-color:#ffffff;stop-opacity:0;"
         offset="1"
         id="stop6674" />
    </linearGradient>
    <linearGradient
       inkscape:collect="always"
       id="linearGradient6660">
      <stop
         style="stop-color:#ffffff;stop-opacity:1;"
         offset="0"
         id="stop6662" />
      <stop
         style="stop-color:#ffffff;stop-opacity:0;"
         offset="1"
         id="stop6664" />
    </linearGradient>
    <linearGradient
       inkscape:collect="always"
       id="linearGradient9895">
      <stop
         style="stop-color:#796052;stop-opacity:1;"
         offset="0"
         id="stop9897" />
      <stop
         style="stop-color:#796052;stop-opacity:0;"
         offset="1"
         id="stop9899" />
    </linearGradient>
    <linearGradient
       inkscape:collect="always"
       id="linearGradient6445">
      <stop
         style="stop-color:#6d594e;stop-opacity:1;"
         offset="0"
         id="stop6447" />
      <stop
         style="stop-color:#6d594e;stop-opacity:0;"
         offset="1"
         id="stop6449" />
    </linearGradient>
    <linearGradient
       inkscape:collect="always"
       id="linearGradient6375">
      <stop
         style="stop-color:#514843;stop-opacity:1;"
         offset="0"
         id="stop6377" />
      <stop
         style="stop-color:#514843;stop-opacity:0"
         offset="1"
         id="stop6379" />
    </linearGradient>
    <linearGradient
       inkscape:collect="always"
       id="linearGradient6361">
      <stop
         style="stop-color:#3a3b3a;stop-opacity:1;"
         offset="0"
         id="stop6363" />
      <stop
         style="stop-color:#3a3b3a;stop-opacity:0;"
         offset="1"
         id="stop6365" />
    </linearGradient>
    <linearGradient
       inkscape:collect="always"
       id="linearGradient6329">
      <stop
         style="stop-color:#000000;stop-opacity:1;"
         offset="0"
         id="stop6331" />
      <stop
         style="stop-color:#000000;stop-opacity:0;"
         offset="1"
         id="stop6333" />
    </linearGradient>
    <linearGradient
       inkscape:collect="always"
       id="linearGradient6319">
      <stop
         style="stop-color:#363939;stop-opacity:1;"
         offset="0"
         id="stop6321" />
      <stop
         style="stop-color:#363939;stop-opacity:0;"
         offset="1"
         id="stop6323" />
    </linearGradient>
    <linearGradient
       inkscape:collect="always"
       id="linearGradient6301">
      <stop
         style="stop-color:#3b3c3b;stop-opacity:1;"
         offset="0"
         id="stop6303" />
      <stop
         style="stop-color:#3b3c3b;stop-opacity:0;"
         offset="1"
         id="stop6305" />
    </linearGradient>
    <linearGradient
       inkscape:collect="always"
       id="linearGradient6267">
      <stop
         style="stop-color:#2e3436;stop-opacity:1;"
         offset="0"
         id="stop6269" />
      <stop
         style="stop-color:#2e3436;stop-opacity:0;"
         offset="1"
         id="stop6271" />
    </linearGradient>
    <inkscape:perspective
       sodipodi:type="inkscape:persp3d"
       inkscape:vp_x="0 : 526.18109 : 1"
       inkscape:vp_y="0 : 1000 : 0"
       inkscape:vp_z="744.09448 : 526.18109 : 1"
       inkscape:persp3d-origin="372.04724 : 350.78739 : 1"
       id="perspective5663" />
    <inkscape:perspective
       id="perspective5709"
       inkscape:persp3d-origin="372.04724 : 350.78739 : 1"
       inkscape:vp_z="744.09448 : 526.18109 : 1"
       inkscape:vp_y="0 : 1000 : 0"
       inkscape:vp_x="0 : 526.18109 : 1"
       sodipodi:type="inkscape:persp3d" />
    <radialGradient
       inkscape:collect="always"
       xlink:href="#linearGradient6267"
       id="radialGradient6423"
       gradientUnits="userSpaceOnUse"
       gradientTransform="matrix(0.09180177,-0.1410537,0.57412,0.3736538,119.50568,578.7484)"
       cx="272.46106"
       cy="353.0986"
       fx="272.46106"
       fy="353.0986"
       r="114.07019" />
    <linearGradient
       inkscape:collect="always"
       xlink:href="#linearGradient6301"
       id="linearGradient6425"
       gradientUnits="userSpaceOnUse"
       x1="202.23254"
       y1="323.33511"
       x2="188.79752"
       y2="324.7493"
       gradientTransform="matrix(-1.8756764,0,0,1.8756764,782.69453,-389.59915)" />
    <linearGradient
       inkscape:collect="always"
       xlink:href="#linearGradient6319"
       id="linearGradient6427"
       gradientUnits="userSpaceOnUse"
       x1="220.97087"
       y1="321.92087"
       x2="217.08179"
       y2="338.71466"
       gradientTransform="matrix(-1.8756764,0,0,1.8756764,781.86559,-386.28338)" />
    <linearGradient
       inkscape:collect="always"
       xlink:href="#linearGradient6329"
       id="linearGradient6429"
       gradientUnits="userSpaceOnUse"
       gradientTransform="matrix(-1.6729006,0,0,1.8170615,725.85159,-365.95956)"
       x1="288.5"
       y1="365.36218"
       x2="297.75"
       y2="365.36218" />
    <linearGradient
       inkscape:collect="always"
       xlink:href="#linearGradient6361"
       id="linearGradient6431"
       gradientUnits="userSpaceOnUse"
       gradientTransform="matrix(-1.8756764,0,0,1.8756764,829.44672,-280.1791)"
       x1="301.22751"
       y1="256.86707"
       x2="309.00568"
       y2="234.94675" />
    <linearGradient
       inkscape:collect="always"
       xlink:href="#linearGradient6375"
       id="linearGradient6433"
       gradientUnits="userSpaceOnUse"
       gradientTransform="matrix(-1.8756764,0,0,1.8756764,784.02084,-386.94655)"
       x1="260.95273"
       y1="373.71643"
       x2="261.42242"
       y2="378.48941" />
    <linearGradient
       inkscape:collect="always"
       xlink:href="#linearGradient6445"
       id="linearGradient6451"
       x1="244"
       y1="625.73718"
       x2="259"
       y2="634.73718"
       gradientUnits="userSpaceOnUse"
       gradientTransform="matrix(-1.8756764,0,0,1.8756764,719.17264,-897.32475)" />
    <linearGradient
       inkscape:collect="always"
       xlink:href="#linearGradient9895"
       id="linearGradient9901"
       x1="210.36427"
       y1="607.32684"
       x2="218.40762"
       y2="620.40833"
       gradientUnits="userSpaceOnUse"
       gradientTransform="matrix(-1.8756764,0,0,1.8756764,720.5794,-897.79367)" />
    <linearGradient
       inkscape:collect="always"
       xlink:href="#linearGradient6301"
       id="linearGradient6135"
       gradientUnits="userSpaceOnUse"
       gradientTransform="matrix(-1.8756764,0,0,1.8756764,803.90773,51.635482)"
       x1="202.23254"
       y1="323.33511"
       x2="188.79752"
       y2="324.7493" />
    <linearGradient
       inkscape:collect="always"
       xlink:href="#linearGradient6319"
       id="linearGradient6137"
       gradientUnits="userSpaceOnUse"
       gradientTransform="matrix(-1.8756764,0,0,1.8756764,803.07879,54.951252)"
       x1="220.97087"
       y1="321.92087"
       x2="217.08179"
       y2="338.71466" />
    <linearGradient
       inkscape:collect="always"
       xlink:href="#linearGradient6329"
       id="linearGradient6139"
       gradientUnits="userSpaceOnUse"
       gradientTransform="matrix(-1.6729006,0,0,1.8170615,747.06479,75.275072)"
       x1="288.5"
       y1="365.36218"
       x2="297.75"
       y2="365.36218" />
    <linearGradient
       inkscape:collect="always"
       xlink:href="#linearGradient6361"
       id="linearGradient6141"
       gradientUnits="userSpaceOnUse"
       gradientTransform="matrix(-1.8756764,0,0,1.8756764,850.65992,161.05553)"
       x1="301.22751"
       y1="256.86707"
       x2="309.00568"
       y2="234.94675" />
    <linearGradient
       inkscape:collect="always"
       xlink:href="#linearGradient6375"
       id="linearGradient6143"
       gradientUnits="userSpaceOnUse"
       gradientTransform="matrix(-1.8756764,0,0,1.8756764,805.23404,54.288082)"
       x1="260.95273"
       y1="373.71643"
       x2="261.42242"
       y2="378.48941" />
    <linearGradient
       inkscape:collect="always"
       xlink:href="#linearGradient9895"
       id="linearGradient6145"
       gradientUnits="userSpaceOnUse"
       gradientTransform="matrix(-1.8756764,0,0,1.8756764,741.7926,-456.55904)"
       x1="210.36427"
       y1="607.32684"
       x2="218.40762"
       y2="620.40833" />
    <linearGradient
       inkscape:collect="always"
       xlink:href="#linearGradient6445"
       id="linearGradient6147"
       gradientUnits="userSpaceOnUse"
       gradientTransform="matrix(-1.8756764,0,0,1.8756764,740.38584,-456.09012)"
       x1="244"
       y1="625.73718"
       x2="259"
       y2="634.73718" />
    <radialGradient
       inkscape:collect="always"
       xlink:href="#linearGradient6660"
       id="radialGradient6666"
       cx="168.26779"
       cy="693.44495"
       fx="168.26779"
       fy="693.44495"
       r="57.5"
       gradientTransform="matrix(1,0,0,0.6695652,0,235.22403)"
       gradientUnits="userSpaceOnUse" />
    <radialGradient
       inkscape:collect="always"
       xlink:href="#linearGradient6670"
       id="radialGradient6678"
       cx="148.52199"
       cy="647.45093"
       fx="148.52199"
       fy="647.45093"
       r="92.521988"
       gradientTransform="matrix(0.894303,0.4474618,-0.6917274,1.3824955,463.55785,-314.10495)"
       gradientUnits="userSpaceOnUse" />
    <radialGradient
       inkscape:collect="always"
       xlink:href="#linearGradient6682"
       id="radialGradient6688"
       cx="227.64011"
       cy="707.89026"
       fx="227.64011"
       fy="707.89026"
       r="94.452866"
       gradientTransform="matrix(1.328206,0,0,0.3778224,-69.400105,485.719)"
       gradientUnits="userSpaceOnUse" />
    <radialGradient
       inkscape:collect="always"
       xlink:href="#linearGradient6670"
       id="radialGradient6692"
       gradientUnits="userSpaceOnUse"
       gradientTransform="matrix(0.894303,0.4474618,-0.6917274,1.3824955,635.55785,-420.10495)"
       cx="148.52199"
       cy="647.45093"
       fx="148.52199"
       fy="647.45093"
       r="92.521988" />
    <linearGradient
       inkscape:collect="always"
       xlink:href="#linearGradient6706"
       id="linearGradient6712"
       x1="303.86737"
       y1="549.75647"
       x2="303.86737"
       y2="559.67828"
       gradientUnits="userSpaceOnUse" />
    <linearGradient
       inkscape:collect="always"
       xlink:href="#linearGradient6706"
       id="linearGradient6716"
       gradientUnits="userSpaceOnUse"
       x1="321.19147"
       y1="583.69763"
       x2="326.1412"
       y2="571.69904"
       gradientTransform="matrix(1,0,0,-1,13.435029,1243.1002)" />
    <linearGradient
       inkscape:collect="always"
       xlink:href="#linearGradient6301"
       id="linearGradient6770"
       gradientUnits="userSpaceOnUse"
       gradientTransform="matrix(-1.8756764,0,0,1.8756764,986.69453,522.40085)"
       x1="202.23254"
       y1="323.33511"
       x2="188.79752"
       y2="324.7493" />
    <linearGradient
       inkscape:collect="always"
       xlink:href="#linearGradient6319"
       id="linearGradient6772"
       gradientUnits="userSpaceOnUse"
       gradientTransform="matrix(-1.8756764,0,0,1.8756764,985.86559,525.71662)"
       x1="220.97087"
       y1="321.92087"
       x2="217.08179"
       y2="338.71466" />
    <linearGradient
       inkscape:collect="always"
       xlink:href="#linearGradient6329"
       id="linearGradient6774"
       gradientUnits="userSpaceOnUse"
       gradientTransform="matrix(-1.6729006,0,0,1.8170615,929.85159,546.04044)"
       x1="288.5"
       y1="365.36218"
       x2="297.75"
       y2="365.36218" />
    <linearGradient
       inkscape:collect="always"
       xlink:href="#linearGradient6361"
       id="linearGradient6776"
       gradientUnits="userSpaceOnUse"
       gradientTransform="matrix(-1.8756764,0,0,1.8756764,1033.4467,631.8209)"
       x1="301.22751"
       y1="256.86707"
       x2="309.00568"
       y2="234.94675" />
    <linearGradient
       inkscape:collect="always"
       xlink:href="#linearGradient6375"
       id="linearGradient6778"
       gradientUnits="userSpaceOnUse"
       gradientTransform="matrix(-1.8756764,0,0,1.8756764,988.02084,525.05345)"
       x1="260.95273"
       y1="373.71643"
       x2="261.42242"
       y2="378.48941" />
    <linearGradient
       inkscape:collect="always"
       xlink:href="#linearGradient9895"
       id="linearGradient6780"
       gradientUnits="userSpaceOnUse"
       gradientTransform="matrix(-1.8756764,0,0,1.8756764,924.5794,14.20633)"
       x1="210.36427"
       y1="607.32684"
       x2="218.40762"
       y2="620.40833" />
    <linearGradient
       inkscape:collect="always"
       xlink:href="#linearGradient6445"
       id="linearGradient6782"
       gradientUnits="userSpaceOnUse"
       gradientTransform="matrix(-1.8756764,0,0,1.8756764,923.17264,14.67525)"
       x1="244"
       y1="625.73718"
       x2="259"
       y2="634.73718" />
    <clipPath
       id="clipPath">
      <path
         style="fill:#db9977;fill-opacity:1;fill-rule:evenodd;stroke:#000000;stroke-width:3.75135279;stroke-linecap:butt;stroke-linejoin:miter;stroke-miterlimit:4;stroke-dasharray:none;stroke-opacity:1"
         d="m 293.94732,1259.1443 c 0,0 55.24016,-13.0961 77.68347,-22.2629 17.9536,-7.333 41.09082,-19.4747 56.84159,-30.7892 11.35099,-8.154 22.76587,-23.5661 34.10493,-31.7366 10.11219,-7.2864 25.15343,-14.6784 36.47336,-19.8945 22.09963,-10.1834 54.35207,-17.3809 75.78876,-28.8945 11.39502,-6.1202 27.92097,-14.314 35.05233,-25.105 3.61165,-5.4651 5.50366,-14.81 4.73679,-21.3156 -0.72168,-6.1224 -4.58295,-14.173 -8.99993,-18.4735 -3.69073,-3.5935 -10.55394,-6.2372 -15.63143,-7.1052 -9.5619,-1.6346 -20.55481,2.8818 -29.84183,5.6841 -8.82721,2.6636 -20.76632,8.5219 -29.36814,11.842 -5.04815,1.9485 -12.41,2.5009 -17.52615,4.2631 -6.19356,2.1334 -13.85162,6.4713 -19.89456,9 -15.31282,6.4076 -35.19951,17.54 -51.63109,19.8945 -13.55086,1.9417 -45.47326,-3.7894 -45.47326,-3.7894"
         id="path6732"
         sodipodi:nodetypes="csssssssssssssss"
         inkscape:connector-curvature="0" />
    </clipPath>
    <filter
       id="filter"
       height="2"
       width="2"
       x="-0.5"
       y="-0.5">
      <feGaussianBlur
         stdDeviation="5.0"
         id="feGaussianBlur6855" />
    </filter>
    <clipPath
       id="clipPath7">
      <path
         style="fill:#db9977;fill-opacity:1;fill-rule:evenodd;stroke:#000000;stroke-width:3.75135279;stroke-linecap:butt;stroke-linejoin:miter;stroke-miterlimit:4;stroke-dasharray:none;stroke-opacity:1"
         d="m 432.27297,1016.1106 c 54.95221,3.2459 78.86471,-1.8963 152.51593,2.8721 28.4817,1.844 53.93952,46.7152 58.73212,74.8512 3.28793,19.3025 11.66926,38.1028 17.52585,59.2011 1.55094,5.5872 -6.05067,13.3451 -11.37129,15.6501 -4.20504,1.8218 -10.89599,-0.3101 -15.18125,-1.9343 -12.28503,-4.6561 -20.41541,-22.6043 -25.08717,-27.4317 -3.85533,-3.9838 3.50104,13.8225 0.46892,18.4637 -10.16182,15.5545 -26.69891,31.1389 -40.73735,42.613 -3.6459,2.9799 -11.42514,-0.6721 -15.65018,1.4067 -4.69178,2.3085 -16.02801,17.0962 -20.74967,19.343 -10.86472,2.0824 -6.82511,-1.4732 -16.1777,8.6163 -6.41202,4.7854 -17.11428,9.6948 -25.08718,9.0267 -15.91368,-1.3335 -37.54215,-28.2225 -46.42299,-26.0836 -8.91494,2.1472 -36.49586,24.8029 -54.98076,31.7693 -11.06885,4.1715 -23.92793,13.795 -34.58278,18.9326 -15.54718,7.4966 -36.37594,17.8006 -53.04647,22.2737 -6.50302,1.7449 -15.52942,2.0154 -22.21504,2.8135 -14.05505,1.6778 -23.99737,0.2772 -46.89191,5.2167 1.67106,-24.0349 2.98662,-134.0029 2.34459,-149.2335 12.16313,-0.992 33.18895,-13.5512 46.423,-21.2772 18.63188,-10.8772 41.1821,-28.9647 58.26319,-42.1441 10.63118,-8.2028 23.4144,-20.9733 34.58278,-28.4282 19.34224,-12.9109 36.98053,-37.7293 57.32536,-36.5171 z m 68.63803,140.7343 -14.1848,21.2772 25.55609,-4.7478 4.27889,-7.0924 z"
         id="path6718"
         sodipodi:nodetypes="csssssssssccssssssccssscccccc"
         inkscape:connector-curvature="0" />
    </clipPath>
    <filter
       y="-0.5"
       x="-0.5"
       width="2"
       height="2"
       id="filtern">
      <feGaussianBlur
         id="feGaussianBlur7186"
         stdDeviation="5.0" />
    </filter>
    <radialGradient
       inkscape:collect="always"
       xlink:href="#linearGradient6670"
       id="radialGradient7466"
       gradientUnits="userSpaceOnUse"
       gradientTransform="matrix(0.894303,0.4474618,-0.6917274,1.3824955,465.55785,-210.10495)"
       cx="148.52199"
       cy="647.45093"
       fx="148.52199"
       fy="647.45093"
       r="92.521988" />
    <radialGradient
       inkscape:collect="always"
       xlink:href="#linearGradient6682"
       id="radialGradient7468"
       gradientUnits="userSpaceOnUse"
       gradientTransform="matrix(1.328206,0,0,0.3778224,-75.4001,593.719)"
       cx="227.64011"
       cy="707.89026"
       fx="227.64011"
       fy="707.89026"
       r="94.452866" />
    <linearGradient
       inkscape:collect="always"
       xlink:href="#linearGradient6706"
       id="linearGradient7470"
       gradientUnits="userSpaceOnUse"
       x1="303.86737"
       y1="549.75647"
       x2="303.86737"
       y2="559.67828"
       gradientTransform="translate(-20,-440)" />
    <linearGradient
       inkscape:collect="always"
       xlink:href="#linearGradient6706"
       id="linearGradient7472"
       gradientUnits="userSpaceOnUse"
       gradientTransform="matrix(1,0,0,-1,-6.564971,803.1002)"
       x1="321.19147"
       y1="583.69763"
       x2="326.1412"
       y2="571.69904" />
    <linearGradient
       inkscape:collect="always"
       xlink:href="#linearGradient6445"
       id="linearGradient7474"
       gradientUnits="userSpaceOnUse"
       gradientTransform="matrix(-1.8756764,0,0,1.8756764,747.17264,-353.32475)"
       x1="244"
       y1="625.73718"
       x2="259"
       y2="634.73718" />
    <linearGradient
       inkscape:collect="always"
       xlink:href="#linearGradient9895"
       id="linearGradient7476"
       gradientUnits="userSpaceOnUse"
       gradientTransform="matrix(-1.8756764,0,0,1.8756764,748.5794,-353.79367)"
       x1="210.36427"
       y1="607.32684"
       x2="218.40762"
       y2="620.40833" />
    <linearGradient
       inkscape:collect="always"
       xlink:href="#linearGradient6375"
       id="linearGradient7478"
       gradientUnits="userSpaceOnUse"
       gradientTransform="matrix(-1.8756764,0,0,1.8756764,812.02084,157.05345)"
       x1="260.95273"
       y1="373.71643"
       x2="261.42242"
       y2="378.48941" />
    <linearGradient
       inkscape:collect="always"
       xlink:href="#linearGradient6361"
       id="linearGradient7480"
       gradientUnits="userSpaceOnUse"
       gradientTransform="matrix(-1.8756764,0,0,1.8756764,857.4467,263.8209)"
       x1="301.22751"
       y1="256.86707"
       x2="309.00568"
       y2="234.94675" />
    <linearGradient
       inkscape:collect="always"
       xlink:href="#linearGradient6329"
       id="linearGradient7482"
       gradientUnits="userSpaceOnUse"
       gradientTransform="matrix(-1.6729006,0,0,1.8170615,753.85159,178.04044)"
       x1="288.5"
       y1="365.36218"
       x2="297.75"
       y2="365.36218" />
    <linearGradient
       inkscape:collect="always"
       xlink:href="#linearGradient6319"
       id="linearGradient7484"
       gradientUnits="userSpaceOnUse"
       gradientTransform="matrix(-1.8756764,0,0,1.8756764,809.86559,157.71662)"
       x1="220.97087"
       y1="321.92087"
       x2="217.08179"
       y2="338.71466" />
    <linearGradient
       inkscape:collect="always"
       xlink:href="#linearGradient6301"
       id="linearGradient7486"
       gradientUnits="userSpaceOnUse"
       gradientTransform="matrix(-1.8756764,0,0,1.8756764,810.69453,154.40085)"
       x1="202.23254"
       y1="323.33511"
       x2="188.79752"
       y2="324.7493" />
    <clipPath
       clipPathUnits="userSpaceOnUse"
       id="clipPath4550">
      <path
         id="path4552"
         d="m 365.523,126.45 h -64.702 v 234.105 h 64.7 c 7.111,0 12.874,-5.765 12.874,-12.874 V 139.326 c 0.002,-7.111 -5.762,-12.876 -12.872,-12.876 z"
         style="fill:#d0d1d3"
         inkscape:connector-curvature="0" />
    </clipPath>
  </defs>
  <metadata
     id="metadata5660">
    <rdf:RDF>
      <cc:Work
         rdf:about="">
        <dc:format>image/svg+xml</dc:format>
        <dc:type
           rdf:resource="http://purl.org/dc/dcmitype/StillImage" />
        <dc:title></dc:title>
      </cc:Work>
    </rdf:RDF>
  </metadata>
  <g
     inkscape:label="Capa 1"
     inkscape:groupmode="layer"
     id="layer1"
     transform="translate(-27.289767,65.201438)">
    <path
       sodipodi:nodetypes="csssssssssccssssssccssscccccc"
       id="path6383"
       d="m 228.27297,104.11059 c 54.95221,3.24588 78.86471,-1.89625 152.51593,2.87213 28.4817,1.84398 53.93952,46.71515 58.73212,74.85121 3.28793,19.30251 11.66926,38.10277 17.52585,59.20104 1.55094,5.58721 -6.05067,13.34512 -11.37129,15.65017 -4.20504,1.82175 -10.89599,-0.31016 -15.18125,-1.93429 -12.28503,-4.6561 -20.41541,-22.60432 -25.08717,-27.43177 -3.85533,-3.9838 3.50104,13.82248 0.46892,18.46369 -10.16182,15.55452 -26.69891,31.13897 -40.73735,42.61303 -3.6459,2.97992 -11.42514,-0.67208 -15.65018,1.40675 -4.69178,2.30847 -16.02801,17.09616 -20.74967,19.34292 -10.86472,2.08248 -6.82511,-1.47314 -16.1777,8.61638 -6.41202,4.78532 -17.11428,9.69479 -25.08718,9.0267 -15.91368,-1.33352 -37.54215,-28.22257 -46.42299,-26.08363 -8.91494,2.14715 -36.49586,24.80284 -54.98076,31.76927 -11.06885,4.17152 -23.92793,13.795 -34.58278,18.93261 -15.54718,7.49661 -36.37594,17.80056 -53.046474,22.27366 -6.50302,1.7449 -15.52942,2.01539 -22.21504,2.81351 -14.055044,1.67783 -23.997366,0.27723 -46.89191,5.21673 1.671059,-24.03488 2.986621,-134.00286 2.344596,-149.23351 12.163123,-0.992 33.188949,-13.55121 46.422994,-21.2772 18.63188,-10.8772 41.182104,-28.96468 58.263194,-42.1441 10.63118,-8.20279 23.4144,-20.97333 34.58278,-28.42822 19.34224,-12.9109 36.98053,-37.72923 57.32536,-36.51708 z m 68.63803,140.73434 -13.7473,20.27721 25.23582,-3.06847 4.16166,-7.77174 z"
       style="fill:#db9977;fill-opacity:1;fill-rule:evenodd;stroke:#000000;stroke-width:3.75135279;stroke-linecap:butt;stroke-linejoin:miter;stroke-miterlimit:4;stroke-dasharray:none;stroke-opacity:1"
       inkscape:connector-curvature="0" />
    <path
       sodipodi:nodetypes="csccss"
       id="path6385"
       d="m 391.1791,266.59494 c 1.7633,-2.01982 -4.16183,-7.89787 -6.61247,-8.98563 -3.69428,-1.63978 -10.22835,-0.30129 -13.26304,2.36839 -12.17196,13.96997 -10.43825,18.0852 -7.10519,29.36814 0.6167,0.60568 2.2425,0.14897 2.84208,-0.47366 6.70597,-6.96397 16.07989,-13.04617 24.13862,-22.27724 z"
       style="fill:#dbbcb3;fill-opacity:1;fill-rule:evenodd;stroke:#000000;stroke-width:3.75135279;stroke-linecap:butt;stroke-linejoin:miter;stroke-miterlimit:4;stroke-dasharray:none;stroke-opacity:1"
       inkscape:connector-curvature="0" />
    <path
       id="path6387"
       d="m 267.13021,312.59894 40.22662,-3.83221 c 0,0 3.29532,-8.127 2.84208,-12.31567 -0.35711,-3.30026 -1.73976,-6.84312 -4.26313,-8.99993 -4.25366,-3.63576 -10.5323,-4.23059 -16.1051,-4.7368 -3.00418,-0.27289 -6.32919,-0.45503 -8.99993,0.94737 -2.57765,1.35352 -4.22034,4.11486 -5.68416,6.63151 -3.97243,6.82956 -8.01638,22.30573 -8.01638,22.30573 z"
       style="fill:#dbbcb3;fill-opacity:1;fill-rule:evenodd;stroke:#000000;stroke-width:3.75135279;stroke-linecap:butt;stroke-linejoin:miter;stroke-miterlimit:4;stroke-dasharray:none;stroke-opacity:1"
       inkscape:connector-curvature="0"
       sodipodi:nodetypes="ccsssssc" />
    <path
       sodipodi:nodetypes="cssss"
       id="path6389"
       d="m 382.54861,229.89427 c 0,0 -13.06366,-3.15136 -20.74718,5.92101 -4.10407,4.84592 -13.06855,8.15945 -16.1051,13.7367 -3.08483,5.66593 -3.54085,14.90229 -2.84208,21.3156 0.67089,6.15736 7.07186,19.39706 7.07186,19.39706"
       style="fill:none;fill-rule:evenodd;stroke:#000000;stroke-width:3.75135279;stroke-linecap:butt;stroke-linejoin:miter;stroke-miterlimit:4;stroke-dasharray:none;stroke-opacity:1"
       inkscape:connector-curvature="0" />
    <path
       sodipodi:nodetypes="cssssssssssssss"
       id="path6395"
       d="m 312.56731,162.87334 c 4.5131,-1.8925 -11.14043,-3.72999 -14.68409,-7.1052 -2.57862,-2.45604 -2.31228,-11.56637 -5.68414,-10.42095 -6.94608,2.35958 8.39684,18.44913 3.78943,24.15768 -3.12886,3.87661 -12.13015,3.18953 -16.57879,0.94734 -4.39951,-2.21742 -4.36759,-15.41421 -8.99993,-13.7367 -3.49697,1.26636 0.41597,8.73484 1.42105,12.31567 0.54984,1.95892 3.59476,4.26756 2.84209,6.15783 -1.69858,4.2658 -10.19502,7.91098 -14.21041,5.68416 -4.9241,-2.73078 -2.20745,-12.95306 -3.31576,-18.47352 -0.77366,-3.8535 1.0659,-12.3701 -2.84207,-12.78935 -2.02301,-0.21704 -2.72956,4.12634 -2.84208,6.15784 -0.22365,4.03817 3.75467,8.7771 4.26311,12.78936 0.77004,6.07672 -7.01797,22.85696 -1.42103,20.36823 19.00944,-8.45266 44.23704,-20.17098 58.26262,-26.05239 z"
       style="fill:#2e3436;fill-rule:evenodd;stroke:#000000;stroke-width:1.87567639px;stroke-linecap:butt;stroke-linejoin:miter;stroke-opacity:1"
       inkscape:connector-curvature="0" />
    <path
       id="path6411"
       d="m 417.29789,206.26242 -17.24194,5.3052 4.64207,12.5999 16.57878,23.21031 11.27359,-1.98946 1.32631,-13.26303 z"
       style="fill:url(#linearGradient6425);fill-opacity:1;fill-rule:evenodd;stroke:none;stroke-width:1px;stroke-linecap:butt;stroke-linejoin:miter;stroke-opacity:1"
       inkscape:connector-curvature="0" />
    <path
       id="path6393"
       d="M 403.98751,225.87275 400.67175,210.715"
       style="fill:none;fill-rule:evenodd;stroke:#000000;stroke-width:3.75135279;stroke-linecap:butt;stroke-linejoin:miter;stroke-miterlimit:4;stroke-dasharray:none;stroke-opacity:1"
       inkscape:connector-curvature="0" />
    <path
       id="path6413"
       d="m 399.22701,213.22551 3.64733,15.74987 -24.20503,1.1605 h -9.94727 l -7.29467,3.97891 -8.62097,-3.31576 -17.24195,9.28413 -18.56826,3.31576 c 0,0 1.98946,-9.28413 5.30522,-10.61042 3.31577,-1.32631 38.46279,-13.09725 38.46279,-13.09725 l 1.82367,3.64733 z"
       style="fill:url(#linearGradient6427);fill-opacity:1;fill-rule:evenodd;stroke:none;stroke-width:1px;stroke-linecap:butt;stroke-linejoin:miter;stroke-opacity:1"
       sodipodi:nodetypes="ccccccccsccc"
       inkscape:connector-curvature="0" />
    <path
       style="fill:none;fill-rule:evenodd;stroke:#000000;stroke-width:3.75135279;stroke-linecap:butt;stroke-linejoin:miter;stroke-miterlimit:4;stroke-dasharray:none;stroke-opacity:1"
       d="m 367.11952,230.91033 -1.65787,-9.11834"
       id="path9903"
       sodipodi:nodetypes="cc"
       inkscape:connector-curvature="0" />
    <g
       transform="matrix(1.1661176,0.00435352,-0.00435352,1.1661176,-277.4844,-279.04346)"
       id="g4649">
      <path
         inkscape:connector-curvature="0"
         style="fill:#ffffff"
         d="m 483.29887,425.63888 h 130.319 c 7.111,0 12.874,-5.765 12.874,-12.874 V 204.40987 c 0,-7.111 -5.765,-12.874 -12.874,-12.874 h -130.319 c -7.111,0 -12.874,5.765 -12.874,12.874 v 208.35501 c 0,7.109 5.764,12.874 12.874,12.874 z"
         id="path4637" />
      <path
         inkscape:connector-curvature="0"
         style="fill:#d0d1d3"
         d="m 613.61887,191.53387 h -64.702 v 234.10501 h 64.7 c 7.111,0 12.874,-5.765 12.874,-12.874 V 204.40987 c 0.002,-7.111 -5.762,-12.876 -12.872,-12.876 z"
         id="path4639" />
      <path
         inkscape:connector-curvature="0"
         style="fill:#c92f00;fill-opacity:1;stroke-width:0.47077996"
         d="m 602.93987,286.03233 c 0,-16.45659 -13.26375,-29.79708 -29.62524,-29.79708 -8.10966,0 -15.45194,3.2818 -20.79859,8.59361 -1.98293,1.96928 -5.21436,1.96928 -7.19681,0 -5.34712,-5.31134 -12.68941,-8.59361 -20.79859,-8.59361 -16.36149,0 -29.62524,13.34049 -29.62524,29.79708 v 0 c 0,30.77442 39.6279,58.77076 51.00336,66.17283 1.83886,1.19673 4.19935,1.19673 6.03822,0 11.37452,-7.40207 51.00289,-35.39794 51.00289,-66.17283"
         id="path4641" />
      <path
         transform="translate(248.09587,65.083876)"
         id="path4643"
         d="m 354.844,220.94845 c 0,-16.45658 -13.26375,-29.79707 -29.62524,-29.79707 -8.10966,0 -15.45194,3.2818 -20.79859,8.59361 -1.98293,1.96928 -5.21436,1.96928 -7.19681,0 -5.34712,-5.31134 -12.68941,-8.59361 -20.79859,-8.59361 -16.36149,0 -29.62524,13.34049 -29.62524,29.79707 v 0 c 0,30.77442 39.6279,58.77076 51.00336,66.17283 1.83886,1.19673 4.19935,1.19673 6.03822,0 11.37452,-7.40207 51.00289,-35.39794 51.00289,-66.17283"
         style="fill:#930000;fill-opacity:1;stroke-width:0.47077996"
         inkscape:connector-curvature="0"
         clip-path="url(#clipPath4550)" />
      <path
         id="path4645"
         d="m 616.24484,383.53955 c 0,-4.38593 -3.53498,-7.94136 -7.89556,-7.94136 -2.16135,0 -4.11817,0.87465 -5.54313,2.29032 -0.52848,0.52484 -1.38971,0.52484 -1.91806,0 -1.42508,-1.41555 -3.38191,-2.29032 -5.54313,-2.29032 -4.36058,0 -7.89556,3.55543 -7.89556,7.94136 v 0 c 0,8.20183 10.56142,15.66327 13.59315,17.63603 0.49008,0.31894 1.11918,0.31894 1.60927,0 3.03148,-1.97276 13.59302,-9.43407 13.59302,-17.63603"
         style="fill:#930000;fill-opacity:1;stroke-width:0.12546979"
         inkscape:connector-curvature="0" />
      <path
         inkscape:connector-curvature="0"
         style="fill:#c92f00;fill-opacity:1;stroke-width:0.12546979"
         d="m 509.19607,220.35367 c 0,-4.38593 -3.53498,-7.94136 -7.89556,-7.94136 -2.16135,0 -4.11817,0.87465 -5.54313,2.29032 -0.52848,0.52484 -1.38971,0.52484 -1.91806,0 -1.42508,-1.41555 -3.38191,-2.29032 -5.54313,-2.29032 -4.36058,0 -7.89556,3.55543 -7.89556,7.94136 v 0 c 0,8.20183 10.56142,15.66327 13.59315,17.63603 0.49008,0.31894 1.11918,0.31894 1.60927,0 3.03148,-1.97276 13.59302,-9.43407 13.59302,-17.63603"
         id="path4647" />
      <path
         id="path4653"
         d="m 483.29887,425.63888 h 130.319 c 7.111,0 12.874,-5.765 12.874,-12.874 V 204.40987 c 0,-7.111 -5.765,-12.874 -12.874,-12.874 h -130.319 c -7.111,0 -12.874,5.765 -12.874,12.874 v 208.35501 c 0,7.109 5.764,12.874 12.874,12.874 z"
         style="fill:none;stroke:#000000;stroke-width:2.28620291;stroke-miterlimit:4;stroke-dasharray:none;stroke-opacity:1"
         inkscape:connector-curvature="0" />
    </g>
    <g
       id="g4621"
       transform="matrix(1.1185594,0.32965762,-0.32965762,1.1185594,-102.55979,-436.82198)">
      <path
         id="path8"
         d="m 483.29887,425.63888 h 130.319 c 7.111,0 12.874,-5.765 12.874,-12.874 V 204.40987 c 0,-7.111 -5.765,-12.874 -12.874,-12.874 h -130.319 c -7.111,0 -12.874,5.765 -12.874,12.874 v 208.35501 c 0,7.109 5.764,12.874 12.874,12.874 z"
         style="fill:#ffffff"
         inkscape:connector-curvature="0" />
      <path
         id="path10"
         d="m 613.61887,191.53387 h -64.702 v 234.10501 h 64.7 c 7.111,0 12.874,-5.765 12.874,-12.874 V 204.40987 c 0.002,-7.111 -5.762,-12.876 -12.872,-12.876 z"
         style="fill:#d0d1d3"
         inkscape:connector-curvature="0" />
      <path
         id="path2"
         d="m 602.93987,286.03233 c 0,-16.45659 -13.26375,-29.79708 -29.62524,-29.79708 -8.10966,0 -15.45194,3.2818 -20.79859,8.59361 -1.98293,1.96928 -5.21436,1.96928 -7.19681,0 -5.34712,-5.31134 -12.68941,-8.59361 -20.79859,-8.59361 -16.36149,0 -29.62524,13.34049 -29.62524,29.79708 v 0 c 0,30.77442 39.6279,58.77076 51.00336,66.17283 1.83886,1.19673 4.19935,1.19673 6.03822,0 11.37452,-7.40207 51.00289,-35.39794 51.00289,-66.17283"
         style="fill:#c92f00;fill-opacity:1;stroke-width:0.47077996"
         inkscape:connector-curvature="0" />
      <path
         clip-path="url(#clipPath4550)"
         inkscape:connector-curvature="0"
         style="fill:#930000;fill-opacity:1;stroke-width:0.47077996"
         d="m 354.844,220.94845 c 0,-16.45658 -13.26375,-29.79707 -29.62524,-29.79707 -8.10966,0 -15.45194,3.2818 -20.79859,8.59361 -1.98293,1.96928 -5.21436,1.96928 -7.19681,0 -5.34712,-5.31134 -12.68941,-8.59361 -20.79859,-8.59361 -16.36149,0 -29.62524,13.34049 -29.62524,29.79707 v 0 c 0,30.77442 39.6279,58.77076 51.00336,66.17283 1.83886,1.19673 4.19935,1.19673 6.03822,0 11.37452,-7.40207 51.00289,-35.39794 51.00289,-66.17283"
         id="path4546"
         transform="translate(248.09587,65.083876)" />
      <path
         inkscape:connector-curvature="0"
         style="fill:#930000;fill-opacity:1;stroke-width:0.12546979"
         d="m 616.24484,383.53955 c 0,-4.38593 -3.53498,-7.94136 -7.89556,-7.94136 -2.16135,0 -4.11817,0.87465 -5.54313,2.29032 -0.52848,0.52484 -1.38971,0.52484 -1.91806,0 -1.42508,-1.41555 -3.38191,-2.29032 -5.54313,-2.29032 -4.36058,0 -7.89556,3.55543 -7.89556,7.94136 v 0 c 0,8.20183 10.56142,15.66327 13.59315,17.63603 0.49008,0.31894 1.11918,0.31894 1.60927,0 3.03148,-1.97276 13.59302,-9.43407 13.59302,-17.63603"
         id="path4554" />
      <path
         id="path4556"
         d="m 509.19607,220.35367 c 0,-4.38593 -3.53498,-7.94136 -7.89556,-7.94136 -2.16135,0 -4.11817,0.87465 -5.54313,2.29032 -0.52848,0.52484 -1.38971,0.52484 -1.91806,0 -1.42508,-1.41555 -3.38191,-2.29032 -5.54313,-2.29032 -4.36058,0 -7.89556,3.55543 -7.89556,7.94136 v 0 c 0,8.20183 10.56142,15.66327 13.59315,17.63603 0.49008,0.31894 1.11918,0.31894 1.60927,0 3.03148,-1.97276 13.59302,-9.43407 13.59302,-17.63603"
         style="fill:#c92f00;fill-opacity:1;stroke-width:0.12546979"
         inkscape:connector-curvature="0" />
      <path
         inkscape:connector-curvature="0"
         style="fill:none;stroke:#000000;stroke-width:2.28620291;stroke-miterlimit:4;stroke-dasharray:none;stroke-opacity:1"
         d="m 483.29887,425.63888 h 130.319 c 7.111,0 12.874,-5.765 12.874,-12.874 V 204.40987 c 0,-7.111 -5.765,-12.874 -12.874,-12.874 h -130.319 c -7.111,0 -12.874,5.765 -12.874,12.874 v 208.35501 c 0,7.109 5.764,12.874 12.874,12.874 z"
         id="path4651" />
    </g>
    <path
       sodipodi:nodetypes="csssssssssssssss"
       id="path6403"
       d="m 89.947316,347.14431 c 0,0 55.240164,-13.09613 77.683474,-22.26295 17.9536,-7.33301 41.09082,-19.4747 56.84159,-30.78919 11.35099,-8.15394 22.76587,-23.56602 34.10493,-31.73654 10.11219,-7.28648 25.15343,-14.6784 36.47336,-19.89455 22.09963,-10.18335 54.35207,-17.3809 75.78876,-28.89447 11.39502,-6.12022 27.92097,-14.31397 35.05233,-25.10503 3.61165,-5.4651 5.50366,-14.80997 4.73679,-21.3156 -0.72168,-6.12238 -4.58295,-14.17299 -8.99993,-18.47352 -3.69073,-3.59344 -10.55394,-6.2372 -15.63143,-7.10519 -9.5619,-1.63458 -20.55481,2.88181 -29.84183,5.68416 -8.82721,2.66361 -20.76632,8.52184 -29.36814,11.84199 -5.04815,1.94849 -12.41,2.50088 -17.52615,4.26313 -6.19356,2.13336 -13.85162,6.47123 -19.89456,8.99991 -15.31282,6.40765 -35.19951,17.54003 -51.63109,19.89455 -13.55086,1.94173 -45.47326,-3.78943 -45.47326,-3.78943"
       style="fill:#db9977;fill-opacity:1;fill-rule:evenodd;stroke:#000000;stroke-width:3.75135279;stroke-linecap:butt;stroke-linejoin:miter;stroke-miterlimit:4;stroke-dasharray:none;stroke-opacity:1"
       inkscape:connector-curvature="0" />
    <path
       sodipodi:nodetypes="ccssssc"
       id="path6405"
       d="m 361.35631,156.71551 c 3.59757,6.10606 14.28504,31.04674 13.26304,37.4207 6.41542,3.65858 18.7276,0.2689 24.15768,-4.73679 4.2338,-3.90291 5.41668,-12.71893 5.21048,-18.47352 -0.19475,-5.43558 -2.62127,-12.92013 -6.15784,-17.05247 -3.26676,-3.81709 -8.71348,-6.0625 -13.73671,-6.15785 -7.30703,-0.13868 -19.70096,2.32157 -22.73665,8.99993 z"
       style="fill:#dbbcb3;fill-opacity:1;fill-rule:evenodd;stroke:#000000;stroke-width:3.75135279;stroke-linecap:butt;stroke-linejoin:miter;stroke-miterlimit:4;stroke-dasharray:none;stroke-opacity:1"
       inkscape:connector-curvature="0" />
    <path
       id="path6407"
       d="m 316.84006,173.42796 c 8.44055,12.66081 15.00541,27.1973 15.00541,27.1973 l 2.81352,10.78514"
       style="fill:none;fill-rule:evenodd;stroke:#000000;stroke-width:3.75135279;stroke-linecap:butt;stroke-linejoin:miter;stroke-miterlimit:4;stroke-dasharray:none;stroke-opacity:1"
       inkscape:connector-curvature="0" />
    <path
       id="path6409"
       d="m 314.96439,179.5239 c 1.40675,1.87568 7.03378,15.47434 7.03378,15.47434 l 4.68919,14.06757"
       style="fill:none;fill-rule:evenodd;stroke:#000000;stroke-width:3.75135279;stroke-linecap:butt;stroke-linejoin:miter;stroke-miterlimit:4;stroke-dasharray:none;stroke-opacity:1"
       inkscape:connector-curvature="0" />
    <path
       id="path6415"
       d="m 243.21976,300.19731 -8.78272,-5.90546 -3.76403,-3.63412 -2.92758,3.17985 2.50936,7.72252 3.34579,3.63412 7.10983,-4.99691 z"
       style="fill:url(#linearGradient6429);fill-opacity:1;fill-rule:evenodd;stroke:none;stroke-width:1px;stroke-linecap:butt;stroke-linejoin:miter;stroke-opacity:1"
       inkscape:connector-curvature="0" />
    <path
       id="path6417"
       d="m 307.83049,262.3461 11.82309,-3.10595 9.37838,5.62703 -10.78514,-2.81351 z"
       style="fill:none;fill-rule:evenodd;stroke:#000000;stroke-width:3.75135279;stroke-linecap:butt;stroke-linejoin:miter;stroke-miterlimit:4;stroke-dasharray:none;stroke-opacity:1"
       inkscape:connector-curvature="0"
       sodipodi:nodetypes="ccccc" />
    <path
       id="path6419"
       d="m 314.1778,161.83127 -20.55769,9.28411 -18.56826,6.63153 -21.884,9.94727 -17.24195,5.96837 -31.83128,-2.65262 11.93673,-8.62097 17.90509,-0.66314 20.55772,-6.63153 16.57878,-4.64206 21.22086,-9.94727 z"
       style="fill:url(#linearGradient6431);fill-opacity:1;fill-rule:evenodd;stroke:none;stroke-width:1px;stroke-linecap:butt;stroke-linejoin:miter;stroke-opacity:1"
       inkscape:connector-curvature="0" />
    <path
       id="path6421"
       d="m 316.83044,310.70882 -50.73112,5.30522 9.61571,7.62624 10.942,2.98418 7.62624,-0.33156 13.26304,-3.97891 z"
       style="fill:url(#linearGradient6433);fill-opacity:1;fill-rule:evenodd;stroke:none;stroke-width:1px;stroke-linecap:butt;stroke-linejoin:miter;stroke-opacity:1"
       inkscape:connector-curvature="0" />
    <path
       style="fill:#6d594e;fill-opacity:1;fill-rule:evenodd;stroke:#000000;stroke-width:1.87567639px;stroke-linecap:butt;stroke-linejoin:miter;stroke-opacity:1"
       d="m 322.0252,235.2208 -8.62096,16.57881 -17.24195,-8.62099 z"
       id="path6439"
       inkscape:connector-curvature="0" />
    <path
       style="fill:#53443b;fill-opacity:1;fill-rule:evenodd;stroke:none;stroke-width:1px;stroke-linecap:butt;stroke-linejoin:miter;stroke-opacity:1"
       d="m 294.64175,244.42448 -29.17868,11.93673 -4.64205,5.96837 7.29465,5.96836 13.26304,-3.31576 z"
       id="path6441"
       inkscape:connector-curvature="0" />
    <path
       style="fill:none;fill-rule:evenodd;stroke:#000000;stroke-width:3.75135279;stroke-linecap:butt;stroke-linejoin:miter;stroke-miterlimit:4;stroke-dasharray:none;stroke-opacity:1"
       d="m 275.57518,268.14961 -15.94325,-5.62703"
       id="path9881"
       inkscape:connector-curvature="0" />
    <path
       style="fill:none;fill-rule:evenodd;stroke:#000000;stroke-width:3.75135279;stroke-linecap:butt;stroke-linejoin:miter;stroke-miterlimit:4;stroke-dasharray:none;stroke-opacity:1"
       d="m 243.21976,299.09827 -14.06757,-8.44054"
       id="path9883"
       inkscape:connector-curvature="0" />
    <path
       style="fill:url(#linearGradient9901);fill-opacity:1;fill-rule:evenodd;stroke:none;stroke-width:1px;stroke-linecap:butt;stroke-linejoin:miter;stroke-opacity:1"
       d="m 337.44347,235.38659 -17.24195,22.54717 -9.28413,1.32629 12.26831,-20.88927 z"
       id="path9885"
       inkscape:connector-curvature="0" />
    <path
       style="fill:#c28e7e;fill-opacity:1;fill-rule:evenodd;stroke:#000000;stroke-width:3.75135279;stroke-linecap:butt;stroke-linejoin:miter;stroke-miterlimit:4;stroke-dasharray:none;stroke-opacity:1"
       d="m 230.7628,292.75635 20.98642,11.07005 0.7555,-11.02269 3.36311,-10.98938 -14.49461,-0.47367 z"
       id="path9905"
       sodipodi:nodetypes="cccccc"
       inkscape:connector-curvature="0" />
    <path
       style="fill:url(#linearGradient6451);fill-opacity:1;fill-rule:evenodd;stroke:none;stroke-width:1px;stroke-linecap:butt;stroke-linejoin:miter;stroke-opacity:1"
       d="m 272.76167,269.08745 -13.59866,-5.62703 -11.25405,9.8473 -11.72298,12.66082 -5.15811,5.15811 9.8473,9.37838 17.81892,11.25406 -1.87567,-11.25406 -0.93784,-12.1919 5.62703,-13.59865 8.44054,-5.62703 z"
       id="path6443"
       inkscape:connector-curvature="0" />
    <path
       style="opacity:0.5;fill:url(#linearGradient7470);fill-opacity:1;fill-rule:evenodd;stroke:none;stroke-width:1px;stroke-linecap:butt;stroke-linejoin:miter;stroke-opacity:1"
       d="m 238,113.36218 c 12,3 68.11662,-7.45909 88,-2 5.2073,1.42969 4.74662,20.5748 0,18 -25.83473,-14.01405 -59.37086,-2.54494 -82,-4 -4.01663,-0.25827 -6,-12 -6,-12 z"
       id="path6694"
       sodipodi:nodetypes="cssss"
       inkscape:connector-curvature="0" />
    <path
       sodipodi:nodetypes="cssss"
       id="path6714"
       d="m 251.43503,263.8802 c 12,-3 102.76485,-43.4526 122.64823,-48.91169 5.2073,-1.42969 3.52342,-22.09212 0,-18 -18.76366,21.79222 -85.35674,41.3446 -107.45584,46.4264 -19.57298,4.50091 -15.19239,20.48529 -15.19239,20.48529 z"
       style="opacity:0.5;fill:url(#linearGradient7472);fill-opacity:1;fill-rule:evenodd;stroke:none;stroke-width:1px;stroke-linecap:butt;stroke-linejoin:miter;stroke-opacity:1"
       inkscape:connector-curvature="0" />
    <path
       sodipodi:nodetypes="ccsssscc"
       id="path6391"
       d="m 324.88298,232.0306 -17.05249,30.3155 c 0,0 -20.35563,0.94953 -29.84182,4.26311 -5.01076,1.75029 -11.09974,4.26865 -14.5492,8.30256 -3.087,3.61004 -4.85743,8.94423 -5.58548,13.63804 -0.72765,4.69121 0.11,9.53751 0.94735,14.21039 0.78426,4.3766 4.97694,12.16436 4.97694,12.16436 l 63.39216,-5.21523"
       style="fill:none;fill-rule:evenodd;stroke:#000000;stroke-width:3.75135279;stroke-linecap:butt;stroke-linejoin:miter;stroke-miterlimit:4;stroke-dasharray:none;stroke-opacity:1"
       inkscape:connector-curvature="0" />
  </g>
</svg>
