<?xml version="1.0" encoding="UTF-8" standalone="no"?>
<!-- Generator: Adobe Illustrator 19.0.0, SVG Export Plug-In . SVG Version: 6.00 Build 0)  -->

<svg
   xmlns:dc="http://purl.org/dc/elements/1.1/"
   xmlns:cc="http://creativecommons.org/ns#"
   xmlns:rdf="http://www.w3.org/1999/02/22-rdf-syntax-ns#"
   xmlns:svg="http://www.w3.org/2000/svg"
   xmlns="http://www.w3.org/2000/svg"
   xmlns:xlink="http://www.w3.org/1999/xlink"
   xmlns:sodipodi="http://sodipodi.sourceforge.net/DTD/sodipodi-0.dtd"
   xmlns:inkscape="http://www.inkscape.org/namespaces/inkscape"
   version="1.1"
   id="Layer_1"
   x="0px"
   y="0px"
   viewBox="0 0 512 512"
   style="enable-background:new 0 0 512 512;"
   xml:space="preserve"
   sodipodi:docname="question_mark.svg"
   inkscape:version="0.92.0 r15299"><metadata
     id="metadata55"><rdf:RDF><cc:Work
         rdf:about=""><dc:format>image/svg+xml</dc:format><dc:type
           rdf:resource="http://purl.org/dc/dcmitype/StillImage" /><dc:title /></cc:Work></rdf:RDF></metadata><defs
     id="defs53"><linearGradient
       inkscape:collect="always"
       id="linearGradient4540"><stop
         style="stop-color:#000000;stop-opacity:0.54487179"
         offset="0"
         id="stop4536" /><stop
         style="stop-color:#000000;stop-opacity:0;"
         offset="1"
         id="stop4538" /></linearGradient><clipPath
       clipPathUnits="userSpaceOnUse"
       id="clipPath4550"><path
         id="path4552"
         d="m 365.523,126.45 h -64.702 v 234.105 h 64.7 c 7.111,0 12.874,-5.765 12.874,-12.874 V 139.326 c 0.002,-7.111 -5.762,-12.876 -12.872,-12.876 z"
         style="fill:#d0d1d3"
         inkscape:connector-curvature="0" /></clipPath><linearGradient
       inkscape:collect="always"
       xlink:href="#linearGradient4540"
       id="linearGradient4542"
       x1="200.67796"
       y1="194.16949"
       x2="656.15259"
       y2="457.13788"
       gradientUnits="userSpaceOnUse" /><clipPath
       clipPathUnits="userSpaceOnUse"
       id="clipPath4546"><circle
         id="circle4548"
         r="256"
         cy="256"
         cx="256"
         style="fill:#ef7f1a;fill-opacity:1" /></clipPath></defs><sodipodi:namedview
     pagecolor="#ffffff"
     bordercolor="#666666"
     borderopacity="1"
     objecttolerance="10"
     gridtolerance="10"
     guidetolerance="10"
     inkscape:pageopacity="0"
     inkscape:pageshadow="2"
     inkscape:window-width="1920"
     inkscape:window-height="1017"
     id="namedview51"
     showgrid="false"
     inkscape:zoom="0.11523438"
     inkscape:cx="-3092.7952"
     inkscape:cy="474.15819"
     inkscape:window-x="-8"
     inkscape:window-y="-8"
     inkscape:window-maximized="1"
     inkscape:current-layer="Layer_1" /><circle
     style="fill:#ef7f1a;fill-opacity:1"
     cx="256"
     cy="256"
     r="256"
     id="circle2" /><g
     id="g20" /><g
     id="g22" /><g
     id="g24" /><g
     id="g26" /><g
     id="g28" /><g
     id="g30" /><g
     id="g32" /><g
     id="g34" /><g
     id="g36" /><g
     id="g38" /><g
     id="g40" /><g
     id="g42" /><g
     id="g44" /><g
     id="g46" /><g
     id="g48" /><path
     style="fill:url(#linearGradient4542);fill-rule:evenodd;stroke:none;stroke-width:1px;stroke-linecap:butt;stroke-linejoin:miter;stroke-opacity:1;fill-opacity:1"
     d="M 312.94915,131.79661 721.20692,367.50434 591.4046,618.57638 227.45644,408.45081 l 46.0093,-47.6368 -46.0093,-26.56348 39.76659,-65.14541 -116.32244,-67.15879 72.93572,-58.32447 z"
     id="path4534"
     inkscape:connector-curvature="0"
     sodipodi:nodetypes="cccccccccc"
     clip-path="url(#clipPath4546)" /><g
     aria-label="?"
     style="font-style:normal;font-weight:normal;font-size:83.75340271px;line-height:52.34587479px;font-family:sans-serif;letter-spacing:0px;word-spacing:0px;fill:#ffed00;fill-opacity:1;stroke:none;stroke-width:2.09383512px;stroke-linecap:butt;stroke-linejoin:miter;stroke-opacity:1"
     id="text4521"><path
       d="m 277.51218,334.25053 h -50.05574 q -0.1963,-10.79634 -0.1963,-13.1519 0,-24.34084 8.04818,-40.0446 8.04818,-15.70376 32.19271,-35.33347 24.14454,-19.6297 28.85567,-25.71491 7.26299,-9.61855 7.26299,-21.20008 0,-16.09635 -12.95561,-27.48158 -12.7593,-11.58153 -34.54828,-11.58153 -21.00378,0 -35.13716,11.97412 -14.13339,11.97412 -19.43341,36.51125 l -50.64464,-6.2815 q 2.15927,-35.13717 29.83715,-59.6743 27.87418,-24.53713 73.0225,-24.53713 47.50388,0 75.57436,24.92972 28.07047,24.73343 28.07047,57.71133 0,18.25562 -10.40374,34.54828 -10.20744,16.29265 -43.97053,44.36313 -17.47044,14.52598 -21.78898,23.35934 -4.12223,8.83337 -3.72964,31.60383 z m -50.05574,74.20028 v -55.15947 h 55.15946 v 55.15947 z"
       style="font-style:normal;font-variant:normal;font-weight:bold;font-stretch:normal;font-size:402.0163269px;font-family:Arial;-inkscape-font-specification:'Arial Bold';text-align:center;text-anchor:middle;fill:#ffed00;fill-opacity:1;stroke-width:2.09383512px"
       id="path4523" /></g></svg>